<?xml version="1.0" encoding="utf-8"?>
<!-- Generator: Adobe Illustrator 26.5.0, SVG Export Plug-In . SVG Version: 6.00 Build 0)  -->
<svg version="1.1" id="Layer_1" xmlns="http://www.w3.org/2000/svg" xmlns:xlink="http://www.w3.org/1999/xlink" x="0px" y="0px"
	 viewBox="0 0 544.6 100.5" style="enable-background:new 0 0 544.6 100.5;" xml:space="preserve">
<style type="text/css">
	.st0{fill:#FFFFFF;}
	.st1{fill:#00FF00;}
	.st2{fill:none;}
</style>
<g transform="translate(-33.477 -844.154)">
	<path class="st0" d="M530.7,944.6l47.4-47.4l-9.3-9.3l-9.3,9.3l-28.7,28.7V944.6z"/>
	<path class="st1" d="M530.7,849.8v18.7l28.7,28.7l9.3,9.3l9.3-9.3l-9.3-9.3L530.7,849.8z"/>
	<line class="st2" x1="530.7" y1="925.9" x2="530.7" y2="944.6"/>
	<path class="st0" d="M80.9,849.8l-47.4,47.4l9.3,9.3l9.3-9.3l28.7-28.7V849.8z"/>
	<path class="st1" d="M80.9,944.6V926l-28.7-28.7l-9.3-9.3l-9.3,9.3l9.3,9.3L80.9,944.6z"/>
	<line class="st2" x1="80.9" y1="868.5" x2="80.9" y2="849.8"/>
	<path class="st0" d="M125.7,918.5h-8.8l-17.4-24.3v24.3H88.9v-41.6h10.2l16.1,22.9v-22.9h10.5L125.7,918.5z"/>
	<path class="st0" d="M161,918.5h-10.6v-2.6c-2.1,2.2-5.1,3.4-8.1,3.3c-6.7,0-10.7-4.4-10.7-11.2v-20h10.6v17.5
		c0,2.6,1.2,4.4,3.9,4.4c2.1,0,3.8-1.4,4.3-3.4V888H161V918.5z"/>
	<path class="st0" d="M180.9,887.3c2.9-0.1,5.8,0.6,8.2,2.2v8.9c-1.9-1.4-4.2-2.2-6.6-2.2c-3.9,0-7,2.4-7,7s3.1,7,7,7
		c2.4,0,4.7-0.7,6.6-2.2v8.9c-2.4,1.6-5.3,2.3-8.2,2.2c-9.1,0-15.9-6.1-15.9-15.9S171.8,887.3,180.9,887.3z"/>
	<path class="st0" d="M204.4,918.5h-10.6v-44h10.6V918.5z"/>
	<path class="st0" d="M218.8,905.7c0.9,3.7,3.9,5.2,7.8,5.2c3.1,0.1,6.2-0.8,8.8-2.4v8.1c-2.4,1.8-6.1,2.7-10.5,2.7
		c-9.8,0-16.4-5.9-16.4-15.7c0-9.6,6.4-16.1,14.8-16.1c9.5,0,14.3,6.2,14.3,15.2v3.1H218.8z M219,899.7h9.1
		c-0.3-2.6-1.8-4.3-4.4-4.3C221.4,895.4,219.7,896.9,219,899.7L219,899.7z"/>
	<path class="st0" d="M271.2,918.5h-10.6v-2.6c-2.1,2.2-5.1,3.4-8.1,3.3c-6.7,0-10.7-4.4-10.7-11.2v-20h10.6v17.5
		c0,2.6,1.2,4.4,3.9,4.4c2.1,0,3.8-1.4,4.3-3.4V888h10.6V918.5z"/>
	<path class="st0" d="M275.8,907.3c3.1,2.3,6.9,3.7,10.8,3.9c2.1,0,3.5-0.5,3.5-1.8c0-1.2-0.9-1.7-2.8-2.1l-2.4-0.6
		c-5.6-1.2-9.2-3.9-9.2-9.4c0-6.4,5.3-10,12.5-10c3.7-0.1,7.4,0.8,10.6,2.7v8.7c-2.8-2.2-6.1-3.4-9.6-3.5c-1.8,0-3,0.6-3,1.8
		c0,1.2,0.9,1.6,2.4,2l2.8,0.8c6.6,1.8,9.3,4.5,9.3,9.6c0,6.5-5.6,9.7-13.1,9.7c-4.3,0-8.7-1-11.6-2.9V907.3z"/>
	<path class="st0" d="M318.6,876.9h15.7c13.1,0,21,8.1,21,20.8s-7.9,20.8-21,20.8h-15.7V876.9z M333.7,909.1
		c6.9,0,10.8-4.4,10.8-11.4c0-7-3.9-11.5-10.8-11.5h-4.5v22.8H333.7z"/>
	<path class="st0" d="M368.4,905.7c0.9,3.7,3.9,5.2,7.8,5.2c3.1,0.1,6.2-0.8,8.8-2.4v8.1c-2.4,1.8-6.1,2.7-10.5,2.7
		c-9.8,0-16.4-5.9-16.4-15.7c0-9.6,6.4-16.1,14.8-16.1c9.5,0,14.3,6.2,14.3,15.2v3.1H368.4z M368.5,899.7h9.1
		c-0.3-2.6-1.8-4.3-4.4-4.3C370.9,895.4,369.2,896.9,368.5,899.7L368.5,899.7z"/>
	<path class="st0" d="M399.5,918.5L387.9,888h10.8l5.8,17.5l5.7-17.5h10.4l-11.7,30.5H399.5z"/>
	<path class="st0" d="M444,876.2c3.7-0.1,7.4,0.9,10.6,2.8v10.6c-2.8-2.2-6.2-3.4-9.7-3.4c-6.9,0-11.3,4.3-11.3,11.5
		c0,7.1,4.4,11.4,11.3,11.4c3.5,0,6.9-1.1,9.7-3.3v10.6c-3.2,2-6.8,3-10.6,2.8c-12.7,0-21.3-8.5-21.3-21.5S431.3,876.2,444,876.2z"
		/>
	<path class="st0" d="M473.8,919.2c-9.2,0-15.6-6.5-15.6-15.9s6.4-15.9,15.6-15.9c9.3,0,15.6,6.5,15.6,15.9S483.1,919.2,473.8,919.2
		z M473.8,896c-3.3,0-5.1,3-5.1,7.2s1.8,7.1,5.1,7.1c3.3,0,5.1-2.9,5.1-7.1S477.1,896,473.8,896z"/>
	<path class="st0" d="M493.5,888h10.6v2.6c2.2-2.2,5.1-3.4,8.2-3.3c6.8,0,10.8,4.4,10.8,11.2v20h-10.6v-17.4c0-2.5-1.3-4.3-4-4.3
		c-2.1-0.1-3.9,1.3-4.4,3.3v18.4h-10.6V888z"/>
</g>
</svg>
