<svg xmlns="http://www.w3.org/2000/svg" width="544.625" height="100.484" viewBox="0 0 544.625 100.484"><g transform="translate(-33.477 -844.154)"><path d="M530.7,944.637,578.1,897.216l-9.338-9.338-9.338,9.338L530.7,925.945Z" fill="#fff"/><path d="M530.7,849.8v18.677l28.729,28.744,9.338,9.323,9.338-9.323-9.338-9.338Z" fill="lime"/><line y2="18.692" transform="translate(530.697 925.945)" fill="none"/><path d="M80.882,849.8,33.477,897.216l9.338,9.338,9.338-9.338,28.729-28.729Z" fill="#fff"/><path d="M80.882,944.637V925.96L52.154,897.216l-9.338-9.323-9.338,9.323,9.338,9.338Z" fill="lime"/><line y1="18.692" transform="translate(80.882 849.796)" fill="none"/><path d="M108.771,860.786a.815.815,0,0,1-.369.639l-5.144,2.97V852.939l-9.921-5.728,5.144-2.969a.816.816,0,0,1,.739,0l9.551,5.514Zm-7.72-6.575-6.794-3.925a.826.826,0,0,0-.738,0l-4.591,2.652,7.165,4.137v8.275l4.588-2.651a.816.816,0,0,0,.369-.64Zm-12.123,7,4.957,2.863v-5.729Z" fill="#00ea00"/><path d="M119.7,849.752h-5.406v14.642h2.4v-5.747h3.027c3.276,0,5.08-1.6,5.08-4.507C124.8,852.821,124.3,849.752,119.7,849.752Zm2.661,4.429c0,1.651-.857,2.324-2.958,2.324h-2.71v-4.591h3.027C121.5,851.914,122.359,852.656,122.359,854.181Zm9.579-.455.182.088-.407,2.164-.28-.086a2.347,2.347,0,0,0-.693-.107c-2.241,0-2.424,1.785-2.424,3.944v4.665h-2.222V853.642h2.083v1.3a2.872,2.872,0,0,1,2.155-1.433A3.024,3.024,0,0,1,131.938,853.726Zm5.461-.3a4.742,4.742,0,0,0-4.05,1.925,6.462,6.462,0,0,0-1.087,3.687c0,3.4,2.015,5.593,5.137,5.593,3.793,0,5.139-3.056,5.139-5.672a6.012,6.012,0,0,0-1.255-3.847A4.853,4.853,0,0,0,137.4,853.425Zm0,9.22c-1.738,0-2.818-1.383-2.818-3.608,0-2.249,1.08-3.647,2.818-3.647s2.839,1.415,2.839,3.608C140.238,861.247,139.149,862.645,137.4,862.645Zm23.807-8.919.182.088-.409,2.164-.28-.086a2.327,2.327,0,0,0-.693-.107c-2.24,0-2.422,1.785-2.422,3.944v4.665h-2.221V853.642h2.083v1.3a2.871,2.871,0,0,1,2.155-1.433A3.022,3.022,0,0,1,161.206,853.726Zm7.979,7.221-.042.118a2.36,2.36,0,0,1-2.421,1.6,2.786,2.786,0,0,1-2.868-2.928h7.6l.028-.211a6.408,6.408,0,0,0,.024-.856c0-.07,0-.133,0-.194-.111-3.01-2.073-5.031-4.882-5.031a4.636,4.636,0,0,0-3.891,1.865,6.411,6.411,0,0,0-1.151,3.748c0,3.322,2.067,5.554,5.14,5.554a4.408,4.408,0,0,0,4.613-3.4l.072-.262Zm-5.257-3.14a2.585,2.585,0,0,1,2.656-2.436,2.526,2.526,0,0,1,2.6,2.436Zm-12.611-3.263a3.8,3.8,0,0,0-2.858-1.119c-3.26,0-4.743,2.868-4.743,5.533,0,2.734,1.466,5.494,4.743,5.494a3.8,3.8,0,0,0,2.773-1.126c-.008.474-.02.926-.033,1.118-.121,1.773-.973,2.6-2.681,2.6-.93,0-2-.33-2.2-1.256l-.046-.2h-2.189l.036.294c.229,1.895,1.893,3.073,4.342,3.073,2.149,0,3.678-.81,4.421-2.34a7.556,7.556,0,0,0,.54-3.194v-9.774h-2.1Zm-2.719,7.924c-.777,0-2.582-.352-2.582-3.608,0-2.141,1.012-3.47,2.64-3.47,1.258,0,2.6.911,2.6,3.47C151.258,861.118,150.263,862.468,148.6,862.468Zm33.171-1.311c0,1.71-1.42,3.435-4.59,3.435-2.8,0-4.473-1.215-4.7-3.419l-.024-.226h2.186l.033.164c.268,1.325,1.531,1.6,2.543,1.6,1.109,0,2.294-.357,2.294-1.359,0-.508-.331-.868-.982-1.072-.387-.114-.861-.248-1.363-.388-.865-.242-1.76-.494-2.311-.684a2.827,2.827,0,0,1-2.146-2.61c0-2.167,2.11-3.138,4.2-3.138,2.8,0,4.243,1.053,4.425,3.219l.018.223H179.2l-.03-.171c-.217-1.247-1.457-1.433-2.177-1.433-.622,0-2.068.111-2.068,1.141,0,.469.4.813,1.224,1.052.246.069.612.163,1.034.272.877.227,1.97.511,2.52.7A2.708,2.708,0,0,1,181.769,861.157Zm10.26,0c0,1.71-1.419,3.435-4.589,3.435-2.805,0-4.473-1.215-4.7-3.419l-.023-.226h2.187l.032.164c.268,1.325,1.531,1.6,2.543,1.6,1.109,0,2.293-.357,2.293-1.359,0-.508-.33-.868-.981-1.072-.387-.114-.862-.248-1.364-.388-.864-.242-1.759-.494-2.309-.684a2.827,2.827,0,0,1-2.146-2.61c0-2.167,2.109-3.138,4.2-3.138,2.8,0,4.243,1.053,4.424,3.219l.019.223h-2.154l-.03-.171c-.217-1.247-1.456-1.433-2.177-1.433-.621,0-2.067.111-2.067,1.141,0,.469.4.813,1.223,1.052.246.069.611.163,1.035.272.877.227,1.969.511,2.52.7A2.71,2.71,0,0,1,192.029,861.157Z" fill="#fff"/><path d="M193.787,854.795a1.531,1.531,0,1,1,1.515-1.531A1.5,1.5,0,0,1,193.787,854.795Zm0-2.8a1.272,1.272,0,1,0,1.238,1.272A1.228,1.228,0,0,0,193.787,851.992Zm-.176,1.556v.511h-.452v-1.607h.754a.537.537,0,0,1,.594.561.471.471,0,0,1-.31.485l.368.561h-.5l-.309-.511Zm.251-.719h-.251v.36h.251c.134,0,.209-.067.209-.176A.183.183,0,0,0,193.862,852.829Z" fill="#fff"/><path d="M125.657,918.475h-8.809L99.432,894.147v24.328h-10.5V876.867H99.093l16.06,22.9v-22.9h10.5Z" fill="#fff"/><path d="M160.957,918.475H150.318v-2.643a10.9,10.9,0,0,1-8.132,3.32c-6.708,0-10.707-4.4-10.707-11.181V887.98h10.572v17.484c0,2.575,1.22,4.405,3.93,4.405a4.463,4.463,0,0,0,4.337-3.389v-18.5h10.639Z" fill="#fff"/><path d="M180.943,887.3a14,14,0,0,1,8.2,2.169v8.944a10.782,10.782,0,0,0-6.573-2.168c-3.93,0-7.048,2.371-7.048,6.98s3.118,6.979,7.048,6.979a10.782,10.782,0,0,0,6.573-2.168v8.945a14,14,0,0,1-8.2,2.168c-9.148,0-15.924-6.1-15.924-15.924S171.795,887.3,180.943,887.3Z" fill="#fff"/><path d="M204.387,918.475H193.748V874.428h10.639Z" fill="#fff"/><path d="M218.818,905.667c.881,3.659,3.863,5.15,7.793,5.15a15.658,15.658,0,0,0,8.809-2.439v8.063c-2.371,1.762-6.1,2.711-10.5,2.711-9.758,0-16.4-5.895-16.4-15.72,0-9.556,6.37-16.129,14.773-16.129,9.487,0,14.3,6.167,14.3,15.247v3.117Zm.136-5.963H228.1c-.271-2.575-1.83-4.337-4.4-4.337C221.394,895.367,219.7,896.926,218.954,899.7Z" fill="#fff"/><path d="M271.2,918.475H260.557v-2.643a10.9,10.9,0,0,1-8.132,3.32c-6.708,0-10.707-4.4-10.707-11.181V887.98H252.29v17.484c0,2.575,1.219,4.405,3.93,4.405a4.462,4.462,0,0,0,4.337-3.389v-18.5H271.2Z" fill="#fff"/><path d="M275.8,907.293a19.381,19.381,0,0,0,10.775,3.863c2.1,0,3.456-.474,3.456-1.83,0-1.22-.949-1.693-2.779-2.1l-2.371-.611c-5.625-1.219-9.216-3.861-9.216-9.351,0-6.369,5.285-9.961,12.468-9.961a19.391,19.391,0,0,1,10.639,2.711v8.742a16.608,16.608,0,0,0-9.623-3.525c-1.829,0-3.048.611-3.048,1.83,0,1.152.88,1.558,2.371,1.965l2.778.814c6.642,1.762,9.284,4.473,9.284,9.622,0,6.505-5.624,9.69-13.146,9.69-4.269,0-8.742-1.016-11.588-2.914Z" fill="#fff"/><path d="M318.555,876.867h15.72c13.079,0,21.008,8.132,21.008,20.8s-7.929,20.8-21.008,20.8h-15.72Zm15.179,32.188c6.912,0,10.774-4.4,10.774-11.384,0-7.048-3.862-11.452-10.774-11.452h-4.472v22.836Z" fill="#fff"/><path d="M368.356,905.667c.881,3.659,3.863,5.15,7.793,5.15a15.664,15.664,0,0,0,8.81-2.439v8.063c-2.372,1.762-6.1,2.711-10.5,2.711-9.758,0-16.4-5.895-16.4-15.72,0-9.556,6.369-16.129,14.772-16.129,9.487,0,14.3,6.167,14.3,15.247v3.117Zm.136-5.963h9.149c-.272-2.575-1.83-4.337-4.406-4.337C370.932,895.367,369.237,896.926,368.492,899.7Z" fill="#fff"/><path d="M399.525,918.475,387.937,887.98h10.842l5.828,17.484L410.3,887.98h10.435L409.08,918.475Z" fill="#fff"/><path d="M443.975,876.189a18.775,18.775,0,0,1,10.57,2.846v10.572a15.492,15.492,0,0,0-9.69-3.388c-6.912,0-11.316,4.269-11.316,11.452,0,7.115,4.4,11.384,11.316,11.384a15.411,15.411,0,0,0,9.69-3.321v10.573a18.783,18.783,0,0,1-10.57,2.845c-12.672,0-21.346-8.539-21.346-21.481S431.3,876.189,443.975,876.189Z" fill="#fff"/><path d="M473.787,919.152c-9.217,0-15.586-6.506-15.586-15.924S464.57,887.3,473.787,887.3c9.283,0,15.585,6.506,15.585,15.925S483.07,919.152,473.787,919.152Zm0-23.107c-3.254,0-5.083,2.981-5.083,7.183s1.829,7.115,5.083,7.115c3.32,0,5.15-2.913,5.15-7.115S477.107,896.045,473.787,896.045Z" fill="#fff"/><path d="M493.5,887.98h10.639v2.643a11.061,11.061,0,0,1,8.2-3.32c6.777,0,10.775,4.4,10.775,11.181v19.991H512.544V901.059c0-2.507-1.288-4.336-4-4.336a4.366,4.366,0,0,0-4.4,3.32v18.432H493.5Z" fill="#fff"/></g></svg>